<svg xmlns="http://www.w3.org/2000/svg" viewBox="0 0 720 500" font-family="system-ui, -apple-system, 'Segoe UI', sans-serif">
  <rect width="720" height="500" fill="#fcfcfb"/>
  <text x="24" y="34" font-size="18" font-weight="700" fill="#0b0b0b">Where the router sent the calls</text>
  <text x="24" y="56" font-size="13" fill="#898781">one developer, 31 sessions, one day of dogfooding (2026-09-23) — 1578 routed requests</text>

  <text x="24" y="74" font-size="12" font-weight="600" fill="#52514e">SHARE OF REQUESTS BY TIER</text>

  <text x="196" y="111" text-anchor="end" font-size="13" fill="#52514e">micro · Haiku</text>
  <rect x="210" y="96" width="50.07299270072993" height="22" rx="4" fill="#86b6ef"/>
  <text x="268.0729927007299" y="111"
        text-anchor="start" font-size="13" font-weight="600"
        fill="#0b0b0b">9.8%</text>

  <text x="196" y="157" text-anchor="end" font-size="13" fill="#52514e">low · Sonnet</text>
  <rect x="210" y="142" width="420" height="22" rx="4" fill="#3987e5"/>
  <text x="620" y="157"
        text-anchor="end" font-size="13" font-weight="600"
        fill="#ffffff">82.2%</text>

  <text x="196" y="203" text-anchor="end" font-size="13" fill="#52514e">medium · Opus (high)</text>
  <rect x="210" y="188" width="3" height="22" rx="4" fill="#1c5cab"/>
  <text x="221" y="203"
        text-anchor="start" font-size="13" font-weight="600"
        fill="#0b0b0b">0.1%</text>

  <text x="196" y="249" text-anchor="end" font-size="13" fill="#52514e">high · Opus (xhigh)</text>
  <rect x="210" y="234" width="40.87591240875912" height="22" rx="4" fill="#0d366b"/>
  <text x="258.8759124087591" y="249"
        text-anchor="start" font-size="13" font-weight="600"
        fill="#0b0b0b">8%</text>

  <line x1="24" y1="300" x2="696" y2="300" stroke="#e1e0d9" stroke-width="1"/>
  <text x="24" y="320" font-size="12" font-weight="600" fill="#52514e">INPUT-TOKEN COST, LIST PRICE — SAME TRAFFIC, REPRICED AT OPUS RATES</text>

  <text x="196" y="355" text-anchor="end" font-size="13" fill="#52514e">router (actual)</text>
  <rect x="210" y="340" width="341.043219076006" height="22" rx="4" fill="#2a78d6"/>
  <text x="559.0432190760059" y="355" font-size="13" font-weight="600" fill="#0b0b0b">$114.42</text>

  <text x="196" y="401" text-anchor="end" font-size="13" fill="#52514e">same traffic, Opus prices</text>
  <rect x="210" y="386" width="420" height="22" rx="4" fill="#c3c2b7"/>
  <text x="638" y="401" font-size="13" font-weight="600" fill="#0b0b0b">$140.91</text>
  <text x="24" y="448" font-size="12" fill="#898781">−18.8% on input tokens alone. Output-token price isn't in the model, so real savings are likely larger, not smaller.</text>
  <text x="24" y="468" font-size="12" fill="#898781">Not measured: answer quality. One machine, one day — a dogfood snapshot, not a benchmark.</text>
</svg>